<svg width="128" height="137" viewBox="0 0 128 137" fill="none" xmlns="http://www.w3.org/2000/svg">
<path d="M116.42 14.0703H11.5801C9.85617 14.0703 8.20287 14.7551 6.98388 15.9741C5.7649 17.1931 5.08008 18.8464 5.08008 20.5703V125.42C5.08008 127.144 5.7649 128.798 6.98388 130.017C8.20287 131.235 9.85617 131.92 11.5801 131.92H68.0001V86.2903H52.6601V68.5003H68.0001V55.3803C68.0001 40.1603 77.3001 31.8703 90.8801 31.8703C95.4627 31.854 100.043 32.0877 104.6 32.5703V48.4803H95.2101C87.8201 48.4803 86.3901 51.9903 86.3901 57.1403V68.5003H104L101.71 86.2903H86.3901V131.93H116.39C118.113 131.928 119.765 131.242 120.983 130.024C122.202 128.805 122.887 127.153 122.89 125.43V20.5803C122.893 18.8599 122.213 17.2085 121 15.9882C119.788 14.7679 118.141 14.0783 116.42 14.0703Z" fill="#3D5A98"/>
</svg>
